<svg xmlns="http://www.w3.org/2000/svg" viewBox="0 0 150 55"><path fill="#fff" d="M82.7 24.9c-.4-.4-.7-1-1-1.6s-.4-1.3-.5-1.8l-.4-2.3a10.3 10.3 0 0 1 2.3-7.5c.8-.9 1.7-1.6 2.6-2a6 6 0 0 1 2.9-.8 1.6 1.6 0 0 1 1.5 1 4.2 4.2 0 0 1 .3 1.6v2l-.2 2.1-.4 2.5-.6 2.8-.5 2.2-.8 3 2.3.1 1.1.1c.2 0 .3.1.4.3s0 .3-.2.6c-.1.2-.4.4-.7.4h-1.9l-1.6.1-1.6 4c-.5 1.3-1.1 2.6-1.8 3.6s-1.5 2-2.3 2.7-1.7 1-2.6 1a6.9 6.9 0 0 1-5.6-2.5c-.6-.7-1-1.3-1.2-2l-.4-1.6c0-.6.2-1.3.5-2 .3-.6.9-1.2 1.6-1.8s1.7-1.1 2.9-1.6c1.2-.4 2.6-.8 4.2-1l2-.2 1.8-.2 1.2-4.9a89 89 0 0 0 1.2-4.6l.4-1.9.3-2 .1-1.4-.1-.7a1 1 0 0 0-.5.2l-1 .8a9 9 0 0 0-1.8 2.8 20.8 20.8 0 0 0-1.2 6c0 1 0 2 .5 2.8l-.2.7-.2.3-.2.3-.3.2-.3.2zm-.4 9a89.4 89.4 0 0 0 2-5.9l-3.2.5c-1 .2-2 .6-3 1s-1.5.8-2 1.3-.9 1.2-.9 2a4.3 4.3 0 0 0 1.6 3.4c.4.4.9.7 1.3.9l1.2.3c.4 0 .6-.2 1-.4a8.7 8.7 0 0 0 1.4-2l.6-1.1zm15.2-2c.7 0 1.4-.2 2.2-.7a19.7 19.7 0 0 0 4.5-4l1.4-1.9.5-.5.4.1.1.5c0 .3 0 .5-.3.8l-.7 1.1-1.2 1.6-1.7 1.7a15.3 15.3 0 0 1-4 2.8 5.4 5.4 0 0 1-2 .5c-1 0-1.7-.2-2.4-.6s-1.1-.8-1.5-1.4c-.4-.5-.7-1.1-.8-1.8l-.2-2a11.5 11.5 0 0 1 1.7-5.4c.6-.9 1.4-1.6 2.2-2.3 1-.7 2-1 3.2-1 .7 0 1.3.2 1.8.7.5.5.7 1.1.7 1.9 0 .4 0 .8-.2 1.1l-.5 1a2 2 0 0 1-1.7 1c-.3 0-.4-.2-.6-.3s-.2-.5-.2-.7v-1.3l.4-.4.4-.2c.2 0 .3-.2.3-.3l.1-.4-.1-.4a.6.6 0 0 0-.4-.1l-1 .4a8 8 0 0 0-3 3.7 8 8 0 0 0-.6 3.2c0 .7.1 1.3.3 1.7.2.5.5.8.8 1.1.3.3.7.4 1 .5.4.2.7.3 1.1.3z"/><path fill="#fff" d="m120.5 26.6-1.2 1.6-1.4 2-1.5 1.6-1.2 1.2-.7.3-.9.2h-.8l-.7-.4c-.2-.2-.4-.3-.5-.6l-.3-1v-1.4a7.4 7.4 0 0 1-3.5 3c-.7.3-1.4.4-2 .4-.3 0-.7 0-1-.3s-.6-.5-.9-1-.4-1-.4-1.7a12.2 12.2 0 0 1 1.6-6c.7-1.2 1.4-2 2.2-2.9.8-.7 1.5-1.3 2.2-1.7s1.4-.5 1.9-.5c.6.1 1 .3 1.4.5.3.2.5.6.6 1 .1.4 0 1-.5 1.6l.7-.1h.7v1L114 25l-.5 2.4-.1.6-.1.4-.1.6-.2.8v.6l.1.7c0 .2.2.3.3.4l.6.2.9-.4c.4-.2.6-.6 1-1l1.2-1.4 1.2-1.5 1-1.2.6-.8a1 1 0 0 1 .5-.4c.2 0 .3 0 .4.2v.6c0 .3 0 .6-.3 1zm-9.4 1.5.4-1.6.3-1.7.3-1.3V23l-.4.1-.4.1-.5.1.3-.8a1 1 0 0 0 0-.6.5.5 0 0 0-.1-.3c-.3-.2-.7 0-1.3.4s-1.3 1.5-2 2.8a9 9 0 0 0-1.2 5l.2 1c.3.2.5.3.8.3l1-.3.9-.6.8-.8.6-.8.3-.5zm24-.2-.7.9-1.2 1.3-1.6 1.5-1.9 1.4a35.3 35.3 0 0 1-4.5 11.3 9 9 0 0 1-2 2.2c-.8.6-1.6.9-2.4.9s-1.5-.2-2-.4a2.5 2.5 0 0 1-1-1.1l-.4-1.4v-1.6c0-.6.2-1.4.6-2.2a13.8 13.8 0 0 1 7-7l1.5-.7 1.3-.6c.2-.7.2-1.2 0-1.4s-.3-.4-.5-.4c-.4 0-.9.2-1.4.5l-2 1.6h-.5l-.4-.4-.4-.4c-.2-.3-.3-.7-.3-1 0-.4.2-.7.5-1l1.4-1 1.7-2 .6-1 .8-1.1.7-1.3.5-1.3h-1.9l-1.4.3-1.4.4-1.8.7-.2-.2v-.5l-.1-.6.1-.8.4-.4a1 1 0 0 1 .5-.3l.5-.2.9-.2 1.4-.2 1.8-.2h1.6c1 0 1.6.2 2 .4.2.2.3.6.1 1l-.9 2.1c-.4 1-1 2.2-2 3.6l-1 1.3a11.3 11.3 0 0 1-.8 1.2l1-.4 1.1-.2c.5 0 .9.3 1 .7.2.5.3 1 .3 1.6a16.6 16.6 0 0 0 4.5-4l.5-.5.4.1.2.4-.2.6zm-8 7v-.5l.2-.4c-1.1.6-2.1 1.2-3 2s-1.8 1.4-2.5 2.1a8.4 8.4 0 0 0-2.2 5c0 .5 0 1 .3 1.4.2.3.5.5 1 .5s1-.4 1.6-1.1 1.2-1.7 1.8-2.7a40.5 40.5 0 0 0 2.7-6.4z"/><path fill="#fff" d="m149.6 26.6-1.2 1.6-1.4 2-1.5 1.6-1.2 1.2-.7.3-.9.2h-.8l-.7-.4-.5-.6-.3-1v-1.4a7.4 7.4 0 0 1-3.5 3c-.7.3-1.4.4-2 .4a2 2 0 0 1-1-.3 2.5 2.5 0 0 1-.9-1 4 4 0 0 1-.4-1.7 12.2 12.2 0 0 1 1.7-6c.6-1.2 1.3-2 2-2.9l2.3-1.7c.7-.4 1.4-.5 2-.5l1.3.5c.3.2.5.6.6 1 .1.4 0 1-.5 1.6l.7-.1h.7v1L143 25l-.5 2.4-.1.6-.1.4-.1.6-.2.8v.6l.1.7c0 .2.2.3.3.4l.6.2.9-.4c.4-.2.6-.6 1-1l1.2-1.4 1.2-1.5 1-1.2.6-.8a1 1 0 0 1 .5-.4c.2 0 .3 0 .4.2v.6c0 .3 0 .6-.3 1zm-9.4 1.5.4-1.6.4-1.7.2-1.3V23l-.4.1-.4.1-.5.1.3-.8a1 1 0 0 0 0-.6.5.5 0 0 0-.1-.3c-.3-.2-.7 0-1.3.4s-1.2 1.5-2 2.8a9 9 0 0 0-1.2 5l.2 1c.3.2.5.3.8.3l1-.3.9-.6.8-.8.6-.8.3-.5z"/><path fill="#fff" d="M12 21.3a151.6 151.6 0 0 0 1.4-3l1.3-2.7 1-2.2c.3-.7.5-1.2.5-1.6v-1.1a1.6 1.6 0 0 0-.7-.7 4 4 0 0 0-1-.5l-1.1-.2a26.2 26.2 0 0 0-5.8.5c-1 .2-1.8.5-2.5.9s-1 1-1.1 1.4l.1.9c.1.2.3.4.7.6s.8.2 1.4.2h.4l.5-.2.8-.1-1.7 2.3a2 2 0 0 1-2.1.9l-1-.3a8.5 8.5 0 0 1-1.4-.6 3.5 3.5 0 0 1-1.3-1.2c-.3-.4-.4-1-.4-1.8.1-.8.4-1.6 1-2.3s1.6-1.3 2.7-1.8 2.5-.9 4-1.2c1.6-.2 3.4-.4 5.4-.4 1.5 0 2.7.2 3.6.5s1.5.7 1.9 1.2c.4.5.6 1.1.6 1.8 0 .6-.2 1.3-.5 2l-.5 1.4-1 2-1.2 2.4-1.3 2.9a65.3 65.3 0 0 1 3 .3c.4 0 .5.3.4.4l-.6 1-.7.4-.7.1h-1.6l-.7-.1-1.2 3.1-1.2 3-.9 2.4a14.5 14.5 0 0 0-.8 4v1.6c0 .6 0 1.1.2 1.4l-1.3.4-.9.2-.7.2H5.6c-.3-.2-.3-.8-.2-1.5l.2-1.7.5-2.2.9-2.6A37.4 37.4 0 0 1 9.5 26l1.3-2.8-3.3.3-2 .3a26.6 26.6 0 0 0-3.4.9v-1.6l.3-.4.6-1.1 3.2-.3 2.6-.2H12zm23.3 5a21.1 21.1 0 0 1-8.2 7.3 7 7 0 0 1-3 .7c-.6 0-1 0-1.7-.3s-1-.7-1.6-1.2c-.5-.5-.8-1.1-1.1-2a7.5 7.5 0 0 1-.3-3c0-.9.4-1.9.9-3a13 13 0 0 1 4.3-5c1-.7 1.9-1 2.8-1s1.5.3 2 .7c.3.4.5 1 .4 1.7a4.8 4.8 0 0 1-.5 2L28 24.7 26.5 26l-1.5 1-1.4 1.1-1.2 1c0 .5 0 1 .3 1.4l.7 1c.3.3.6.3 1 .4l1 .2c.9 0 1.7-.3 2.5-.7s1.7-1.2 2.5-1.9l2.3-2.1 1.8-2c.2-.2.3-.3.5-.3h.4l.2.4-.3.7zm-8.9-5.4-1 .4-1.1 1.2a10.7 10.7 0 0 0-1.8 4.6l.9-.7 1-.7c1-.7 1.7-1.4 2-2s.7-1 .7-1.5c0-.4 0-.7-.2-1 0-.2-.3-.3-.5-.3zm2.9-8.8c.2-.2.4-.2.7 0 .2.2.4.5.5.9V14c-.1.3-.3.5-.6.7a15.3 15.3 0 0 1-3.4 1.7l-1 .3-.6-.1c-.1-.1-.3-.2-.3-.4a.6.6 0 0 1-.2-.4v-.5l3.7-2.6 1.2-.7z"/><path fill="#fff" d="m32.3 33 2.5-10.4 1.3-6 .8-3.3.2-1.3v-1.2l-.1-1 .6-.3.6-.2.8-.2h1.2l.3.3c.2 0 .2.3.2.7v1a20.8 20.8 0 0 0-.4 1.5l-1.2 4.3-1.7 6.6-2.6 10.4-.5.3h-.9l-.5-.2-.4-.4-.2-.6zm11.2-12.6c.1-.1.3-.3.7-.4l1-.2h1.4l-.2.7L46 22l-.6 2-.6 1.5-.4 1.4-.4 1.6-.3 1.4a2 2 0 0 0 .5 1.6l.4.1c.5 0 1-.2 1.8-.7a30.2 30.2 0 0 0 4.2-4l1.4-1.8c.1-.2.4-.4.6-.4h.5l.2.5c0 .2 0 .4-.2.7a35.5 35.5 0 0 1-6.4 7c-.8.6-1.4 1-2 1-.3 0-.7-.1-1-.3l-1.2-.6c-.4-.2-.5-.6-.8-1s-.3-.7-.3-1.1v-2.4l.3-3.1.7-3c.5-1 .8-1.6 1.2-2zm4.8-7.4c0 .3-.2.5-.4.7l-.7.6c-.2.2-.4.3-.7.3s-.5 0-.6-.1c-.5-.4-.8-.8-.8-1.2 0-.5.1-.9.3-1.3s.6-.7.9-1c.4-.2.6-.4.9-.4.3 0 .5 0 .6.2l.5.5.1.8v.9z"/><path fill="#fff" d="M65.7 28.9a32 32 0 0 1-2.7 3 14.5 14.5 0 0 1-2 1.5c-.6.4-1 .6-1.5.7l-1.2.1c-.4 0-.8 0-1.1-.3l-.8-.7-.5-1-.2-.8a14.8 14.8 0 0 1-.7-2L53.6 31l-1.5 1.6-1.7 1.8h-.5l-.5-.2-.3-.2-.3-.3-.1-.3v-.3l2-2.3 1.8-2 1.7-2-.8-2.5-.5-1.6-.6-1.7a1.6 1.6 0 0 0-1-1l.9-.5.7-.4.6-.1c.5 0 1 .5 1.4 1.4a26.3 26.3 0 0 1 1.3 4.1l1.3-1.6 1.2-1.4.8-1 .4-.4c.5-.5.9-.8 1.3-.9.3 0 .7 0 1 .3l.4.3 1 .5-1.2 1.3-1.3 1.4-1.5 1.5-1.2 1.3-1.5 1.7a15 15 0 0 0 1.1 3l.6 1c.2.1.4.3.7.3a3.2 3.2 0 0 0 1.2-.3 9.7 9.7 0 0 0 3-2l1.6-1.5c.1-.2.3-.3.5-.3h.4v.5c0 .2 0 .4-.3.7z"/></svg>
